<svg width="195" height="24" viewBox="0 0 195 24" fill="none" xmlns="http://www.w3.org/2000/svg">
<path d="M194.811 6.66809V4.18579C194.811 4.12034 194.799 4.05542 194.773 3.99478C194.747 3.93415 194.709 3.87899 194.661 3.8325C194.612 3.78601 194.555 3.74911 194.492 3.72393C194.429 3.69875 194.361 3.68579 194.293 3.68579H193.152C190.743 3.70791 189.396 4.23225 188.498 5.30526C187.341 6.68137 186.955 8.76986 188.355 11.9424C189.512 14.5973 189.223 15.7035 188.609 16.3672C187.957 17.0575 186.564 17.2721 185.275 17.2721H184.812C184.675 17.2721 184.543 17.3243 184.446 17.4172C184.348 17.5102 184.294 17.6362 184.294 17.7676V20.2433H186.004C188.514 20.2654 190.574 19.3938 191.583 18.3185C193.309 16.511 192.839 14.2853 191.814 11.9756C190.678 9.40261 190.736 8.19022 191.351 7.45128C191.814 6.92694 192.916 6.64376 194.822 6.66809" fill="#A7A9AC"/>
<path d="M176.746 3.70822C175.935 3.69261 175.129 3.83082 174.374 4.11487C173.619 4.39892 172.931 4.82316 172.349 5.36309C171.79 5.91974 171.352 6.57647 171.059 7.29556C170.766 8.01466 170.625 8.78194 170.644 9.55335V19.7038C170.644 19.8528 170.705 19.9958 170.816 20.1012C170.926 20.2065 171.075 20.2657 171.231 20.2657H173.858V15.748H179.682V19.7038C179.683 19.8511 179.743 19.9924 179.852 20.0974C179.96 20.2024 180.106 20.2629 180.261 20.2657H182.887V9.55335C182.906 8.78218 182.766 8.01495 182.474 7.2958C182.182 6.57666 181.745 5.91982 181.186 5.36309C180.066 4.29008 178.507 3.70822 176.75 3.70822H176.746ZM179.677 12.7923H173.848V9.47371C173.848 7.75468 174.948 6.7038 176.746 6.7038C178.544 6.7038 179.673 7.75468 179.673 9.47371L179.677 12.7923Z" fill="#A7A9AC"/>
<path d="M161.823 6.45791C162.619 6.45758 163.402 6.65727 164.092 7.037C164.782 7.41673 165.356 7.96317 165.756 8.62163C165.819 8.72694 165.909 8.81483 166.017 8.87655C166.126 8.93826 166.25 8.97166 166.377 8.9734H169.385C168.355 5.7234 165.576 3.68579 161.813 3.68579C157.292 3.68579 153.768 7.32517 153.768 11.9756C153.768 16.6261 157.292 20.2676 161.813 20.2676C165.504 20.2676 168.306 18.1814 169.362 14.9579H166.388C166.262 14.9597 166.138 14.993 166.029 15.0548C165.92 15.1165 165.83 15.2044 165.768 15.3097C165.37 15.9736 164.798 16.5269 164.108 16.9149C163.418 17.3029 162.634 17.5122 161.834 17.5221C159.106 17.5221 156.954 15.0022 156.954 11.98C156.954 8.95791 159.106 6.46234 161.834 6.46234" fill="#A7A9AC"/>
<path d="M149.174 20.2477H151.798V4.24774C151.798 4.0985 151.735 3.95557 151.625 3.85025C151.514 3.74492 151.364 3.68579 151.208 3.68579H148.584V19.6902C148.584 19.8398 148.646 19.9833 148.757 20.0891C148.868 20.1949 149.018 20.2544 149.174 20.2544" fill="#A7A9AC"/>
<path d="M140.46 3.7082C139.649 3.69271 138.843 3.83098 138.088 4.11502C137.334 4.39906 136.645 4.82325 136.063 5.36307C135.505 5.92001 135.067 6.57679 134.774 7.29581C134.481 8.01484 134.34 8.78198 134.358 9.55334V19.7038C134.358 19.7778 134.373 19.851 134.403 19.9193C134.432 19.9877 134.476 20.0497 134.531 20.1019C134.586 20.1541 134.651 20.1955 134.722 20.2236C134.794 20.2517 134.871 20.266 134.948 20.2657H137.572V9.48475C137.566 8.77658 137.845 8.09335 138.353 7.57736C138.86 7.06137 139.556 6.75242 140.296 6.71484C142.235 6.64626 143.396 7.71041 143.396 9.48475V19.7038C143.396 19.8528 143.458 19.9957 143.568 20.1011C143.679 20.2065 143.828 20.2657 143.984 20.2657H146.61V9.55334C146.629 8.78212 146.488 8.01503 146.195 7.296C145.903 6.57697 145.466 5.92012 144.907 5.36307C143.785 4.29006 142.228 3.7082 140.471 3.7082" fill="#A7A9AC"/>
<path d="M129.753 20.248H132.379V7.89398C132.379 7.82 132.364 7.74675 132.334 7.67842C132.305 7.6101 132.261 7.54805 132.206 7.49584C132.152 7.44363 132.086 7.40228 132.015 7.37417C131.943 7.34606 131.867 7.33174 131.789 7.33204H129.163V19.6904C129.163 19.8401 129.225 19.9836 129.336 20.0894C129.446 20.1952 129.596 20.2546 129.753 20.2546" fill="#A7A9AC"/>
<path d="M129.165 6.50241C129.191 5.83869 129.464 3.75684 132.379 3.75684V5.93825C132.379 6.08749 132.317 6.23066 132.207 6.33639C132.097 6.44213 131.948 6.50183 131.792 6.50241H129.165Z" fill="#A7A9AC"/>
<path d="M119.976 15.1194V4.29194C119.976 4.21786 119.961 4.1445 119.931 4.07605C119.902 4.0076 119.858 3.94541 119.803 3.89302C119.749 3.84063 119.684 3.79908 119.612 3.77073C119.54 3.74238 119.464 3.72778 119.386 3.72778H116.762V15.1658C116.762 18.2632 118.613 20.2543 122.07 20.2543H127.187V17.8008C127.187 17.6516 127.125 17.5084 127.015 17.4027C126.904 17.2969 126.755 17.2372 126.599 17.2366H122.094C120.562 17.2366 119.976 16.6061 119.976 15.1194Z" fill="#A7A9AC"/>
<path d="M107.832 3.77881C106.811 3.78674 105.8 3.97501 104.85 4.33412C105.903 4.83474 106.786 5.61121 107.395 6.57306C107.54 6.54639 107.686 6.52865 107.832 6.51996C108.622 6.51805 109.397 6.71475 110.082 7.09028C110.766 7.46582 111.335 8.00696 111.732 8.65934C111.793 8.76316 111.883 8.84979 111.99 8.91069C112.098 8.9716 112.22 9.00468 112.345 9.00669H115.316C114.291 5.79208 111.535 3.77881 107.832 3.77881Z" fill="#A7A9AC"/>
<path d="M107.888 17.5357C105.169 17.5357 103.017 15.0246 103.017 12.0047C103.021 10.8905 103.346 9.79896 103.956 8.84982C103.25 8.11017 102.412 7.49532 101.483 7.03345C100.422 8.49633 99.8561 10.2355 99.8629 12.0157C99.8629 16.6485 103.371 20.2768 107.883 20.2768C111.555 20.2768 114.351 18.1994 115.399 14.9826H112.435C112.309 14.9847 112.185 15.0183 112.077 15.08C111.969 15.1417 111.879 15.2293 111.817 15.3343C111.419 15.9986 110.847 16.5521 110.157 16.9401C109.468 17.3281 108.684 17.5372 107.883 17.5467" fill="#A7A9AC"/>
<path d="M99.8399 3.77881C95.3022 3.77881 91.6206 7.40492 91.6206 12.0222C91.6206 16.6394 95.3022 20.2899 99.8399 20.2899C100.765 20.2886 101.682 20.1306 102.55 19.8231C101.888 19.3806 101.069 18.7943 100.687 18.3452C100.407 18.3913 100.124 18.415 99.8399 18.416C96.4245 18.416 93.6315 15.6306 93.6315 12.0222C93.6315 8.41377 96.4245 5.62615 99.8399 5.62615C103.329 5.62615 106.051 8.3673 106.051 12.0222C106.052 13.1357 105.763 14.232 105.211 15.2124C105.713 15.6364 106.274 15.9929 106.877 16.2722C107.654 14.9791 108.064 13.5137 108.064 12.0222C108.064 7.31863 104.456 3.77881 99.8469 3.77881" fill="#00B5AD"/>
<path d="M82.7534 5.54199C85.2849 5.54199 87.0829 6.80084 88.0525 8.59066C88.1122 8.7067 88.2044 8.8047 88.3187 8.87381C88.433 8.94291 88.5652 8.98045 88.7004 8.98225H90.3827C89.3206 5.83845 86.5438 3.68579 82.7534 3.68579C78.1949 3.68579 74.5017 7.40039 74.5017 11.9646C74.5017 16.5287 78.2041 20.2654 82.7534 20.2654C86.3262 20.2654 89.2535 18.1769 90.3896 14.9557H88.6958C88.5631 14.9573 88.4335 14.9937 88.3209 15.0608C88.2083 15.1278 88.1171 15.2231 88.0571 15.3362C87.5531 16.2626 86.791 17.0377 85.855 17.5757C84.919 18.1137 83.8455 18.3938 82.7534 18.3849C79.3241 18.3849 76.5172 15.4734 76.5172 11.969C76.5172 8.46455 79.3241 5.55305 82.7534 5.55305" fill="#00B5AD"/>
<path d="M66.6037 3.68584C63.2021 3.65486 60.5573 6.11946 60.5573 9.36062V19.7301C60.5573 19.8785 60.6189 20.0209 60.7287 20.1259C60.8385 20.2309 60.9874 20.2898 61.1427 20.2898H62.6352V9.36062C62.6225 8.8624 62.7142 8.36679 62.9049 7.90295C63.0955 7.43912 63.3813 7.01643 63.7454 6.65978C64.1094 6.30312 64.5445 6.01969 65.0248 5.82618C65.5052 5.63266 66.0212 5.53297 66.5424 5.53297C67.0637 5.53297 67.5796 5.63266 68.06 5.82618C68.5404 6.01969 68.9754 6.30312 69.3394 6.65978C69.7035 7.01643 69.9893 7.43912 70.1799 7.90295C70.3706 8.36679 70.4623 8.8624 70.4496 9.36062V19.7301C70.4499 19.8039 70.4654 19.8769 70.4952 19.945C70.525 20.013 70.5686 20.0748 70.6234 20.1268C70.6782 20.1788 70.7431 20.2199 70.8146 20.2479C70.886 20.2759 70.9625 20.2901 71.0397 20.2898H72.5276V9.58185C72.5276 6.41592 69.9174 3.7146 66.606 3.68584" fill="#00B5AD"/>
<path d="M50.3177 3.68579C45.7545 3.68579 42.0544 7.33402 42.0544 11.9756C42.0544 16.6172 45.7568 20.2898 50.3177 20.2898C54.8786 20.2898 58.581 16.6128 58.581 11.9756C58.581 7.24553 54.9527 3.68579 50.3177 3.68579ZM50.3177 18.4048C46.8814 18.4048 44.0699 15.6039 44.0699 11.9756C44.0699 8.3473 46.8791 5.5442 50.3177 5.5442C53.8258 5.5442 56.5655 8.29862 56.5655 11.9756C56.5655 15.5796 53.7563 18.4048 50.3177 18.4048Z" fill="#00B5AD"/>
<path d="M23.6422 19.9977C19.6899 19.9977 16.5636 16.3472 16.5636 11.9711C16.5672 10.3459 17.0387 8.75304 17.9266 7.36715C16.9003 6.29193 15.6828 5.39907 14.3306 4.72998C12.7924 6.8575 11.9735 9.3848 11.9842 11.9711C11.9842 18.7012 17.075 23.98 23.6422 23.98C28.9829 23.98 33.0463 20.9601 34.5712 16.2831H30.2556C30.0717 16.2861 29.8918 16.3348 29.7336 16.4244C29.5754 16.514 29.4442 16.6414 29.3531 16.7941C28.1961 18.6282 26.1529 19.9977 23.6422 19.9977Z" fill="#A7A9AC"/>
<path d="M23.5517 0C22.0633 0.0105987 20.5898 0.285157 19.2061 0.809734C20.7388 1.53577 22.0232 2.66474 22.9085 4.06416C23.1177 4.02476 23.3296 3.99889 23.5425 3.98672C24.6894 3.98318 25.8171 4.26862 26.812 4.81432C27.8068 5.36001 28.6338 6.14668 29.2095 7.09513C29.2995 7.24648 29.4292 7.3728 29.5858 7.46164C29.7425 7.55048 29.9206 7.59877 30.1027 7.60176H34.4206C32.9512 2.9292 28.9549 0 23.5517 0Z" fill="#A7A9AC"/>
<path d="M11.9426 0C5.34997 0 0 5.27434 0 11.9823C0 18.6903 5.34997 24 11.9426 24C13.2856 23.9985 14.6176 23.7685 15.8764 23.3208C14.9137 22.6903 13.7243 21.8252 13.1667 21.1748C12.76 21.2416 12.3482 21.2757 11.9356 21.2765C6.9744 21.2765 2.91101 17.2279 2.91101 11.9845C2.91101 6.77434 6.9744 2.69248 11.9356 2.69248C17.0079 2.69248 20.9602 6.67478 20.9602 11.9845C20.9621 13.6058 20.5431 15.2022 19.7407 16.6305C20.4704 17.2492 21.2847 17.7702 22.1612 18.1792C23.2885 16.2992 23.8798 14.1692 23.8759 12.0022C23.8874 5.14602 18.6439 0 11.9426 0Z" fill="#00B5AD"/>
</svg>
